# xmcd
#
# Track frame offsets:
#	150
#	12688
#	22393
#	35143
#	46795
#	58290
#	69425
#	81818
#	91455
#	102603
#	115851
#	127499
#	136880
#	149714
#	161936
#	174389
#	184899
#	196538
#	209759
#	224179
#	237081
#	247906
#	262644
#	273276
#	285741
#	296319
#	307451
#	320779
#	334614
#	346206
#
# Disc length: 4784 seconds
#
# Revision: 0
# Processed by: cddbd v1.4PL0 Copyright (c) Steve Scherf et al.
# Submitted via: dBpowerAMP V4.0
#
DISCID=eb12ae1e
DTITLE=Ernest Tubb - Another Story - CD 3
DYEAR=1999
DGENRE=Country
TTITLE0=If I Ever Stop Hurtin'
TTITLE1=Just Pack Up And Go
TTITLE2=I Threw Away The Rose
TTITLE3=Send Me The Pillow You Dream On
TTITLE4=The Day The World Stood Still (Texas Troubadours)
TTITLE5=Just For You (Texas Troubadours)
TTITLE6=Silent Partner (Texas Troubadours)
TTITLE7=Jamming With C And C (Texas Troubadours)
TTITLE8=Mama, Who Was That Man?
TTITLE9=Don't Squeeze My Sharmon
TTITLE10=Sing Me Back Home
TTITLE11=A Dime At A Time
TTITLE12=The Bottle Let Me Down
TTITLE13=Destination Atlanta, GA
TTITLE14=The Image Of Me
TTITLE15=That's The Choice I'll Have To Take
TTITLE16=Today
TTITLE17=She Went A Little Bit Farther
TTITLE18=Saturday Satan Sunday Saint
TTITLE19=Tommy's Doll
TTITLE20=One More Memory
TTITLE21=If We Put Our Heads Together (Our Hearts Will Tell Us What To Do) (w/Loretta Lynn)
TTITLE22=I Chased You Till You Caught Me (w/Loretta Lynn)
TTITLE23=I Won't Cheat Again On You (If You Won't Cheat On Me) (w/Loretta Lynn)
TTITLE24=Who's Gonna Take The Garbage Out (w/Loretta Lynn)
TTITLE25=Let's Turn Back The Years
TTITLE26=Folsom Prison Blues
TTITLE27=Making Believe
TTITLE28=Holding On To Nothing (w/Loretta Lynn)
TTITLE29=Somewhere Between (w/Loretta Lynn)
EXTD=
EXTT0=
EXTT1=
EXTT2=
EXTT3=
EXTT4=
EXTT5=
EXTT6=
EXTT7=
EXTT8=
EXTT9=
EXTT10=
EXTT11=
EXTT12=
EXTT13=
EXTT14=
EXTT15=
EXTT16=
EXTT17=
EXTT18=
EXTT19=
EXTT20=
EXTT21=
EXTT22=
EXTT23=
EXTT24=
EXTT25=
EXTT26=
EXTT27=
EXTT28=
EXTT29=
PLAYORDER=
